<?xml version="1.0" encoding="UTF-8" standalone="no"?>
<svg
   xmlns:svg="http://www.w3.org/2000/svg"
   xmlns="http://www.w3.org/2000/svg"
   xmlns:sodipodi="http://sodipodi.sourceforge.net/DTD/sodipodi-0.dtd"
   xmlns:inkscape="http://www.inkscape.org/namespaces/inkscape"
   inkscape:version="1.1-dev (60faa23c, 2020-06-06)"
   height="16"
   width="16"
   sodipodi:docname="instagram-white.svg"
   id="svg11"
   xml:space="preserve"
   viewBox="0 0 16 16"
   version="1.1"
   enable-background="new 0 0 32 32"><defs
     id="defs15" /><sodipodi:namedview
     inkscape:pagecheckerboard="true"
     inkscape:current-layer="svg11"
     inkscape:window-maximized="0"
     inkscape:window-y="23"
     inkscape:window-x="0"
     inkscape:cy="8.8641115"
     inkscape:cx="16.780488"
     inkscape:zoom="17.9375"
     width="16px"
     showgrid="false"
     id="namedview13"
     inkscape:window-height="701"
     inkscape:window-width="1152"
     inkscape:pageshadow="2"
     inkscape:pageopacity="0"
     guidetolerance="10"
     gridtolerance="10"
     objecttolerance="10"
     borderopacity="1"
     bordercolor="#666666"
     pagecolor="#ffffff" /><g
     style="fill:#ffffff"
     transform="scale(0.5)"
     id="Flat_copy"><path
       style="fill:#ffffff"
       id="path8"
       d="M 28,0 H 4 C 1.741,0 0,1.741 0,4 v 24 c 0,2.258 1.741,4 4,4 h 24 c 2.258,0 4,-1.742 4,-4 V 4 C 32,1.741 30.258,0 28,0 Z M 16.023,9.714 c 3.549,0 6.425,2.787 6.425,6.226 0,3.437 -2.876,6.226 -6.425,6.226 C 12.477,22.166 9.6,19.377 9.6,15.94 9.601,12.501 12.478,9.714 16.023,9.714 Z M 28,27 c 0,0.701 -0.3,1 -1,1 H 5 C 4.301,28 4,27.701 4,27 V 13 l 2.493,0.542 c -0.267,0.87 -0.413,1.79 -0.413,2.745 0,5.318 4.454,9.634 9.943,9.634 5.492,0 9.944,-4.315 9.944,-9.634 0,-0.955 -0.145,-1.875 -0.412,-2.745 L 28,13 Z M 28,9 c 0,0.553 -0.447,1 -1,1 H 23 C 22.447,10 22,9.553 22,9 V 5 c 0,-0.553 0.447,-1 1,-1 h 4 c 0.553,0 1,0.447 1,1 z" /></g></svg>
