<?xml version="1.0" encoding="UTF-8" standalone="no"?>
<svg
   xmlns:svg="http://www.w3.org/2000/svg"
   xmlns="http://www.w3.org/2000/svg"
   xmlns:sodipodi="http://sodipodi.sourceforge.net/DTD/sodipodi-0.dtd"
   xmlns:inkscape="http://www.inkscape.org/namespaces/inkscape"
   width="118"
   height="38"
   viewBox="0 0 31.220833 10.054167"
   version="1.1"
   id="svg6"
   inkscape:version="1.1-dev (60faa23c, 2020-06-06)"
   sodipodi:docname="julien-chieze-logo-white.svg">
  <defs
     id="defs2" />
  <sodipodi:namedview
     units="px"
     width="118mm"
     inkscape:bbox-nodes="true"
     inkscape:snap-bbox="false"
     id="base"
     pagecolor="#ffffff"
     bordercolor="#666666"
     borderopacity="1.0"
     inkscape:pageopacity="0.43921569"
     inkscape:pageshadow="2"
     inkscape:zoom="2.6973308"
     inkscape:cx="189.67819"
     inkscape:cy="89.864685"
     inkscape:document-units="mm"
     inkscape:current-layer="layer1"
     showgrid="false"
     inkscape:window-width="1299"
     inkscape:window-height="748"
     inkscape:window-x="391"
     inkscape:window-y="118"
     inkscape:window-maximized="0"
     inkscape:pagecheckerboard="true" />
  <g
     inkscape:label="Calque 1"
     inkscape:groupmode="layer"
     id="layer1">
    <path
       style="fill:#ffffff;fill-opacity:1;stroke-width:0.275151"
       d="M 4.6153439,9.7468772 C 2.7064659,9.3559062 1.6701449,8.4816412 1.2533419,6.910615 1.0659139,6.2042241 0.91182887,5.4104976 0.91088287,5.1467883 c -9.8e-5,-0.2637141 -0.185926,-0.8355599 -0.411066,-1.2707658 -0.512971,-0.9915089 -0.52933,-2.4938897 -0.031641,-2.9102294 C 1.6013919,0.01771371 10.028301,-0.09498359 12.432931,0.80579421 c 3.225456,1.20824419 3.33813,1.20814229 6.566676,-0.00489 2.422831,-0.9109603 10.814047,-0.7882797 11.965338,0.17492519 0.41854,0.3500999 0.49623,2.2063637 0.108964,2.6009552 C 30.932245,3.7211354 30.627168,4.7715826 30.395871,5.91113 30.048508,7.6231994 29.825158,8.1116912 29.110418,8.7238552 27.446553,10.149073 22.854392,10.404163 20.169356,9.2205202 18.856359,8.6417372 17.643696,6.9694713 17.089341,4.9734047 16.479157,2.776468 15.010874,3.0854311 14.100516,5.6023397 13.362648,7.6423173 12.099868,9.0567852 10.638003,9.4810252 9.0457999,9.9430582 6.1874469,10.069577 4.6153999,9.7475432 Z m 5.8888091,-1.44599 C 11.489634,7.8255656 11.888662,7.4048665 12.490928,6.2062367 13.446127,4.3052244 13.494904,2.7734687 12.618633,2.1947145 11.364879,1.3665737 5.8922819,0.9355453 3.8589769,1.5047784 c -1.392356,0.389803 -1.96825,1.51551 -1.769316,3.4585695 0.214367,2.0939582 0.788,3.0274923 2.174095,3.5383513 2.187967,0.806376 4.292494,0.738683 6.2403971,-0.200812 z M 5.4498289,6.401469 c -0.234632,-0.3376659 -0.426606,-0.71061 -0.426606,-0.8287332 0,-0.347129 1.314305,-0.2458199 1.432072,0.1103703 0.269055,0.813669 0.760297,-0.2101649 0.760297,-1.5846127 0,-1.3189331 0.06712,-1.5031001 0.548076,-1.5031001 0.494363,0 0.548095,0.184167 0.548095,1.878507 0,1.0927669 -0.137577,2.0172289 -0.328856,2.2100696 C 7.4188399,7.2525953 5.9254849,7.0860613 5.4498289,6.401469 Z M 27.093285,8.5150162 C 28.42707,8.0387722 29.101038,7.0065399 29.325426,5.0965024 29.539334,3.2766052 29.045609,2.0907149 27.867484,1.5945296 26.225847,0.903044 20.149705,1.3053698 18.803202,2.1947145 c -1.374458,0.9079031 -0.216645,4.8441043 1.76638,6.0045667 1.680095,0.983146 4.299565,1.109936 6.523703,0.315735 z m -4.6807,-2.1776366 c -1.379786,-1.3908972 -0.450682,-3.7419863 1.478671,-3.7419863 1.112231,0 2.23333,0.6318649 2.23333,1.2588033 0,0.2411377 -0.270718,0.3987175 -0.68507,0.3987175 -0.376777,0 -0.685146,-0.1325696 -0.685146,-0.2945975 0,-0.1620323 -0.339044,-0.2552766 -0.753497,-0.2071866 -0.628403,0.072877 -0.767752,0.236982 -0.839543,0.9871234 -0.09882,1.0344156 0.518764,1.463842 1.351815,0.9395486 1.290407,-0.8125098 2.231743,0.039709 1.002323,0.9076446 -0.928763,0.6558348 -2.316262,0.5449323 -3.102883,-0.248067 z M 1.4606609,2.1810135 c 0,-0.04347 -0.184979,-0.1505675 -0.411076,-0.2380256 -0.24788603,-0.09584 -0.41107703,-9.31e-5 -0.41107703,0.2380256 0,0.2394251 0.163191,0.3339166 0.41107703,0.2380213 0.226097,-0.087506 0.411076,-0.1945697 0.411076,-0.2380213 z m 29.3227701,0.00846 c 0,-0.2566769 -0.159447,-0.3440344 -0.434086,-0.237801 -0.349523,0.1351714 -0.362993,0.213414 -0.06837,0.4014737 0.486749,0.3110274 0.502569,0.305872 0.502569,-0.1636727 z"
       id="path207" />
  </g>
</svg>
