<?xml version="1.0" encoding="UTF-8" standalone="no"?>
<svg
   xmlns:svg="http://www.w3.org/2000/svg"
   xmlns="http://www.w3.org/2000/svg"
   xmlns:sodipodi="http://sodipodi.sourceforge.net/DTD/sodipodi-0.dtd"
   xmlns:inkscape="http://www.inkscape.org/namespaces/inkscape"
   inkscape:version="1.1-dev (60faa23c, 2020-06-06)"
   sodipodi:docname="julien-chieze-logo-back.svg"
   width="118"
   height="38"
   viewBox="0 0 31.220834 10.054167"
   version="1.1"
   id="svg6">
  <sodipodi:namedview
     inkscape:current-layer="svg6"
     inkscape:window-maximized="0"
     inkscape:window-y="0"
     inkscape:window-x="0"
     inkscape:cy="18.450068"
     inkscape:cx="81.835104"
     inkscape:zoom="9.72114"
     units="px"
     showgrid="false"
     id="namedview12"
     inkscape:window-height="1080"
     inkscape:window-width="954"
     inkscape:pageshadow="2"
     inkscape:pageopacity="0"
     guidetolerance="10"
     gridtolerance="10"
     objecttolerance="10"
     borderopacity="1"
     bordercolor="#666666"
     pagecolor="#ffffff" />
  <defs
     id="defs2" />
  <g
     transform="matrix(0.10862595,0,0,0.10950196,-0.07444872,0.00279367)"
     id="layer1">
    <path
       style="fill:#000000;stroke-width:2.52286"
       d="m 42.413266,88.224568 c -17.57294,-3.57044 -27.11321,-11.55445 -30.95026,-25.90146 -1.7254403,-6.45094 -3.1439303,-13.69945 -3.1526403,-16.10771 -9e-4,-2.408304 -1.71162,-7.630544 -3.7842306,-11.604954 -4.72236003,-9.05471 -4.87296003,-22.77483 -0.29129,-26.5769504 10.4322809,-8.65810004 88.0095509,-9.68728 110.1463349,-1.46115 29.69323,11.0339904 30.73048,11.0330604 60.45216,-0.0447 22.30435,-8.31912 99.55304,-7.19877004 110.15169,1.59746 3.85304,3.1972004 4.56825,20.1490704 1.00312,23.7525804 -1.30414,1.31829 -4.11265,10.91124 -6.24195,21.317874 -3.19779,15.63505 -5.25392,20.09608 -11.83375,25.68652 -15.31738,13.01545 -57.59234,15.34499 -82.31052,4.53567 -12.08732,-5.28559 -23.25097,-20.55715 -28.35431,-38.785734 -5.61729,-20.06298 -19.13416,-17.24145 -27.51482,5.743594 -6.79274,18.62959 -18.41777,31.54687 -31.875548,35.42114 -14.657656,4.2194 -40.971366,5.37481 -55.443476,2.4339 z m 54.211786,-13.20514 c 9.072238,-4.34076 12.745638,-8.18269 18.290038,-19.12888 8.79347,-17.360524 9.24251,-31.348904 1.17564,-36.634234 -11.54193,-7.56279 -61.922104,-11.4990504 -80.640504,-6.30067 -12.81789,3.55978 -18.11951,13.84002 -16.28815,31.58453 1.97344,19.122554 7.25425,27.647824 20.0145,32.313114 20.14221,7.36403 39.51627,6.74584 57.448476,-1.83386 z M 50.095446,57.673458 c -2.16,-3.08365 -3.92729,-6.48947 -3.92729,-7.5682 0,-3.17007 12.09936,-2.24489 13.18351,1.00793 2.47689,7.43063 6.99922,-1.91928 6.99922,-14.471084 0,-12.04483 0.61791,-13.72669 5.04553,-13.72669 4.55106,0 5.04571,1.68186 5.04571,17.155 0,9.979424 -1.26652,18.421844 -3.02742,20.182914 -5.19274,5.19283 -18.94042,3.672 -23.31926,-2.57987 z m 199.247474,19.30145 c 12.2787,-4.34918 18.48318,-13.77579 20.54887,-31.218734 1.96921,-16.61976 -2.57596,-27.44961 -13.42167,-31.9809 -15.11274,-6.3148204 -71.04909,-2.64068 -83.44487,5.48104 -12.65312,8.2912 -1.99441,44.237584 16.26112,54.835224 15.46678,8.97833 39.58136,10.13621 60.05655,2.88337 z m -43.09004,-19.88673 c -12.70218,-12.702024 -4.14894,-34.172764 13.61249,-34.172764 10.23908,0 20.55981,5.77035 20.55981,11.49571 0,2.20213 -2.4922,3.64119 -6.30668,3.64119 -3.46858,0 -6.30739,-1.21066 -6.30739,-2.69034 0,-1.47972 -3.12121,-2.33125 -6.93662,-1.89208 -5.78501,0.66553 -7.06785,2.16418 -7.72875,9.01466 -0.90974,9.446544 4.77569,13.368174 12.44468,8.580194 11.87935,-7.420044 20.5452,0.36263 9.22728,8.28884 -8.55009,5.98925 -21.32327,4.97646 -28.56482,-2.26541 z M 13.371566,19.131194 c 0,-0.39698 -1.7029,-1.37502 -3.7843203,-2.17371 -2.28202,-0.87524 -3.7843406,-8.5e-4 -3.7843406,2.17371 0,2.18649 1.5023206,3.04941 3.7843406,2.17367 2.0814203,-0.79913 3.7843203,-1.77686 3.7843203,-2.17367 z m 269.942474,0.0773 c 0,-2.34404 -1.46785,-3.14181 -3.99615,-2.17166 -3.21768,1.23442 -3.34168,1.94895 -0.62937,3.66636 4.48096,2.84038 4.6266,2.7933 4.6266,-1.4947 z"
       id="path207" />
  </g>
</svg>
