<?xml version="1.0" encoding="UTF-8" standalone="no"?>
<svg
   xmlns:svg="http://www.w3.org/2000/svg"
   xmlns="http://www.w3.org/2000/svg"
   xmlns:sodipodi="http://sodipodi.sourceforge.net/DTD/sodipodi-0.dtd"
   xmlns:inkscape="http://www.inkscape.org/namespaces/inkscape"
   inkscape:version="1.1-dev (60faa23c, 2020-06-06)"
   height="16"
   width="16"
   sodipodi:docname="twitter-white.svg"
   id="svg11"
   xml:space="preserve"
   viewBox="0 0 16 16"
   version="1.1"
   enable-background="new 0 0 32 32"><defs
     id="defs15" /><sodipodi:namedview
     inkscape:current-layer="svg11"
     inkscape:window-maximized="0"
     inkscape:window-y="23"
     inkscape:window-x="0"
     inkscape:cy="12.15331"
     inkscape:cx="16.836237"
     inkscape:zoom="17.9375"
     width="16px"
     inkscape:pagecheckerboard="true"
     showgrid="false"
     id="namedview13"
     inkscape:window-height="745"
     inkscape:window-width="1177"
     inkscape:pageshadow="2"
     inkscape:pageopacity="0"
     guidetolerance="10"
     gridtolerance="10"
     objecttolerance="10"
     borderopacity="1"
     bordercolor="#666666"
     pagecolor="#ffffff" /><g
     style="fill:#ffffff"
     transform="matrix(0.49999641,0,0,0.60417767,0.05574913,-1.583866)"
     id="Flat_copy"><path
       style="fill:#ffffff"
       id="path8"
       d="m 20.046,3.071 c -2.89,1.052 -4.716,3.764 -4.509,6.732 l 0.07,1.145 -1.156,-0.14 C 10.244,10.271 6.567,8.448 3.445,5.385 L 1.919,3.866 1.526,4.988 c -0.832,2.501 -0.3,5.143 1.433,6.92 0.925,0.982 0.716,1.122 -0.878,0.537 -0.555,-0.186 -1.041,-0.327 -1.087,-0.257 -0.161,0.164 0.393,2.291 0.832,3.133 0.601,1.17 1.826,2.314 3.168,2.993 l 1.133,0.537 -1.341,0.023 c -1.294,0 -1.341,0.023 -1.202,0.515 0.462,1.519 2.289,3.133 4.323,3.834 l 1.433,0.49 -1.248,0.748 C 6.243,25.538 4.069,26.145 1.895,26.19 0.855,26.213 0,26.307 0,26.378 c 0,0.233 2.821,1.541 4.462,2.057 4.925,1.519 10.775,0.864 15.168,-1.73 3.122,-1.847 6.242,-5.517 7.7,-9.071 0.787,-1.892 1.572,-5.353 1.572,-7.011 0,-1.076 0.07,-1.216 1.364,-2.501 0.764,-0.748 1.48,-1.566 1.619,-1.8 0.232,-0.445 0.207,-0.445 -0.971,-0.047 -1.965,0.702 -2.243,0.608 -1.271,-0.444 0.716,-0.748 1.572,-2.104 1.572,-2.501 0,-0.07 -0.346,0.046 -0.74,0.257 C 30.059,3.819 29.134,4.17 28.44,4.38 L 27.192,4.778 26.059,4.006 C 25.434,3.586 24.557,3.118 24.094,2.978 22.914,2.651 21.11,2.697 20.046,3.071 Z" /></g></svg>
